<svg id="ep0khrn02lxa1" xmlns="http://www.w3.org/2000/svg" xmlns:xlink="http://www.w3.org/1999/xlink" viewBox="0 0 278.800000 984.460000" shape-rendering="geometricPrecision" text-rendering="geometricPrecision"><style><![CDATA[#ep0khrn02lxa3 {
           animation-name: ep0khrn02lxa3_f_p, ep0khrn02lxa3_f_o, ep0khrn02lxa3_s_o, ep0khrn02lxa3_s_do;
           animation-duration: 60000ms;
           animation-fill-mode: forwards;
           animation-timing-function: linear;
           animation-direction: normal;
           animation-iteration-count: infinite;  
        }@keyframes ep0khrn02lxa3_f_p { 0% {fill: rgba(40,40,132,0);animation-timing-function: step-end} 66.666667% {fill: rgba(255,228,202,0.95)} 69% {fill: rgb(255,228,202)} 71.666667% {fill: rgb(255,125,0)} 75.333333% {fill: rgb(168,120,74)} 78.333333% {fill: rgb(255,221,189)} 81% {fill: rgb(255,139,31)} 84% {fill: rgb(113,90,69)} 87.333333% {fill: rgb(255,121,0)} 90% {fill: rgb(255,218,184)} 92.333333% {fill: rgb(194,141,92)} 94.666667% {fill: rgb(255,121,0)} 97% {fill: rgb(247,201,160)} 100% {fill: rgb(247,201,160)} }@keyframes ep0khrn02lxa3_f_o { 0% {fill-opacity: 1} 66.683333% {fill-opacity: 1} 71.666667% {fill-opacity: 0.180000} 75.333333% {fill-opacity: 1} 78.433333% {fill-opacity: 1} 81.083333% {fill-opacity: 0.180000} 84.083333% {fill-opacity: 1} 84.333333% {fill-opacity: 1} 87.316667% {fill-opacity: 0.180000} 89.983333% {fill-opacity: 1} 92.416667% {fill-opacity: 1} 94.733333% {fill-opacity: 0.180000} 97.066667% {fill-opacity: 1} 100% {fill-opacity: 1} }@keyframes ep0khrn02lxa3_s_o { 0% {stroke-opacity: 1} 66.666667% {stroke-opacity: 1} 67% {stroke-opacity: 0.370000} 100% {stroke-opacity: 0.370000} }@keyframes ep0khrn02lxa3_s_do { 0% {stroke-dashoffset: 4459.980000} 66.666667% {stroke-dashoffset: 0} 100% {stroke-dashoffset: 0} }]]></style><defs><linearGradient id="ep0khrn02lxa3-stroke" x1="0" y1="0.500000" x2="1" y2="0.500000" spreadMethod="pad" gradientUnits="objectBoundingBox"><stop id="ep0khrn02lxa3-stroke-0" offset="2%" stop-color="rgb(77,74,68)"/><stop id="ep0khrn02lxa3-stroke-1" offset="100%" stop-color="rgb(74,65,65)"/></linearGradient></defs><g id="ep0khrn02lxa2" transform="matrix(1 0 0 1 -37.89700000000000 -34.05200000000000)"><path id="ep0khrn02lxa3" style="mix-blend-mode:soft-light" d="M184.310000,39.407000C181.871100,39.485830,180.654100,39.487330,179.430300,39.500840L179.430300,39.594680C178.229900,39.582670,177.036400,39.578160,174.644500,39.500840C135.355500,39.859880,135.841500,106.935840,149.964500,127.334840C156.241300,139.887840,149.939700,152.457840,148.369200,165.011840C132.073200,180.268840,79.357200,174.941740,71.045200,188.565840C60.029200,211.201840,46.030200,325.135840,51.808200,343.495840C35.055200,371.772840,69.904200,485.925840,69.872200,507.055840C60.827500,559.731840,84.251200,575.464840,96.804200,575.464840C96.739900,565.550940,78.416200,552.773840,84.089200,541.588840C88.860900,538.514640,87.644800,543.825440,95.491200,548.533040C95.182820,544.762340,94.951030,540.682240,94.693560,536.521040C93.643260,527.180040,92.680260,517.745040,91.972160,508.322040C91.739620,507.012940,91.499890,505.779940,91.221450,504.615340C84.944650,495.200240,95.694150,402.185340,88.781650,368.965340C98.992650,342.056340,106.068650,251.335340,104.499650,237.215340C110.140550,275.365340,107.221950,341.695340,109.191650,368.075340C90.355650,402.954340,88.004650,455.519340,91.971650,508.315340C93.384050,516.266540,94.080950,526.624340,94.693050,536.514340C102.700550,607.731340,118.928050,673.724340,117.684050,690.694340C103.623050,759.313340,121.788350,874.704340,122.657550,886.824340C121.724170,898.041340,115.836050,914.413340,120.076950,921.357340C114.403950,945.426340,107.580950,949.556340,112.288250,963.679340C116.995850,977.802340,152.807250,984.969340,159.349250,976.253340C161.385050,963.032340,156.221150,926.038340,151.513650,919.761340C154.016150,914.385940,159.767350,898.243340,154.657250,882.084340C163.967350,866.827340,175.459250,735.574340,170.985250,721.854340C175.294150,715.673340,179.846150,684.313340,175.159450,675.819340C175.540320,671.677940,176.321650,553.659340,178.255850,550.899340C181.672550,539.753340,180.539850,539.878340,182.675850,550.746960C184.857650,554.573660,184.421250,671.916960,184.802150,676.056960C180.115450,684.551760,183.661350,715.575960,187.970250,721.756960C183.496050,735.476960,194.988350,866.726960,204.298250,881.986960C199.188150,898.145960,204.939350,914.287960,207.441850,919.663960C202.734250,925.940760,197.570350,962.933960,199.606250,976.155960C206.148350,984.870960,241.959250,977.704160,246.667250,963.580960C251.374750,949.457960,244.551450,945.327960,238.878550,921.258960C243.119450,914.314360,237.231350,897.942960,236.297950,886.725960C237.167150,874.606960,255.332950,759.215960,241.271450,690.595960C240.027250,673.624960,256.254450,607.633960,264.262450,536.415960C264.874490,526.525960,265.571350,516.167960,266.983850,508.216960C270.951450,455.416960,268.599850,402.856960,249.763850,367.976960C251.733550,341.599960,248.814910,275.267960,254.455850,237.116960C252.886650,251.239960,259.962650,341.956960,270.173850,368.866960C263.261250,402.084960,274.010750,495.096960,267.734050,504.516960C267.455620,505.681560,267.215880,506.914560,266.983340,508.223660C266.275310,517.646160,265.312240,527.081660,264.261940,536.422660C264.004470,540.583360,263.772680,544.663460,263.464310,548.434660C271.310210,543.727060,270.094110,538.416660,274.866310,541.490460C280.539310,552.676460,262.215310,565.452460,262.151310,575.366460C274.704310,575.366460,298.128310,559.632460,289.083310,506.957460C289.051310,485.826460,323.901310,371.667460,307.147310,343.397460C312.925310,325.034460,298.926510,211.107460,287.910310,188.467460C279.597710,174.843460,226.882310,180.170860,210.586310,164.913460C209.015810,152.360460,202.714310,139.790460,208.991010,127.236460C223.114010,106.837460,223.600010,39.761460,184.311010,39.402460Z" transform="matrix(1 0 0 1 -1.18094394500000 26.64954000000003)" fill="rgba(40,40,132,0)" stroke="url(#ep0khrn02lxa3-stroke)" stroke-width="2.711100" stroke-dashoffset="4459.980000" stroke-dasharray="4459.980000"/></g></svg>