<svg xmlns="http://www.w3.org/2000/svg" xmlns:xlink="http://www.w3.org/1999/xlink" viewBox="0 0 100 100" version="1.1" x="0px" y="0px"><g  stroke-width="2" fill="none" fill-rule="evenodd"><g fill-rule="nonzero" fill="#8e8e8e" stroke="#8e8e8e"><path d="M33.1758839,37.6758839 C33.371146,37.4806217 33.6877285,37.4806217 33.8829906,37.6758839 C34.0782528,37.871146 34.0782528,38.1877285 33.8829906,38.3829906 C24.7056698,47.5603115 24.7056698,62.4396885 33.8829906,71.6170094 C43.0603115,80.7943302 57.9396885,80.7943302 67.1170094,71.6170094 C76.2943302,62.4396885 76.2943302,47.5603115 67.1170094,38.3829906 C66.9217472,38.1877285 66.9217472,37.871146 67.1170094,37.6758839 C67.3122715,37.4806217 67.628854,37.4806217 67.8241161,37.6758839 C77.3919613,47.243729 77.3919613,62.756271 67.8241161,72.3241161 C58.256271,81.8919613 42.743729,81.8919613 33.1758839,72.3241161 C23.6080387,62.756271 23.6080387,47.243729 33.1758839,37.6758839 Z M50.8482234,21.1485928 L63.844844,34.1804483 C64.3155314,34.6514483 63.6090006,35.3584483 63.1383131,34.8874483 L51.3495774,23.0918556 C51.1528548,22.8950186 50.9993738,22.9645424 50.9993738,23.239743 L50.9993738,68.0017053 C50.9993738,68.2753784 50.7756647,68.5 50.4997056,68.5 C50.2318171,68.5 50.0000374,68.2769059 50.0000374,68.0017053 L50.0000374,23.239743 C50.0000374,22.9660699 49.8432588,22.898331 49.6498626,23.0918556 L37.8620974,34.8874483 C37.3914099,35.3584483 36.6838798,34.6514483 37.1555665,34.1804483 L50.1343497,21.1485928 C50.3319878,20.9501466 50.6509573,20.9507918 50.8482234,21.1485928 Z" transform="translate(50.500000, 50.250000) rotate(-270.000000) translate(-50.500000, -50.250000) "/></g></g></svg>